<svg version="1.1" xmlns="http://www.w3.org/2000/svg" xmlns:xlink="http://www.w3.org/1999/xlink" width="300.000000pt" height="300.000000pt" viewBox="0,0,256,256"><g fill="#620000" fill-rule="nonzero" stroke="none" stroke-width="1" stroke-linecap="butt" stroke-linejoin="miter" stroke-miterlimit="10" stroke-dasharray="" stroke-dashoffset="0" font-family="none" font-weight="none" font-size="none" text-anchor="none" style="mix-blend-mode: normal"><g transform="translate(3.11467,3.58588) scale(0.85333,0.85333)"><g transform="translate(0,300) scale(0.1,-0.1)"><path d="M1349,2757c-48,-84 -233,-406 -411,-717c-337,-588 -375,-666 -394,-808l-7,-52h50h50l10,43c34,135 125,461 133,478c18,33 56,51 90,44c54,-12 51,-4 140,-415c86,-400 93,-430 100,-430c3,0 27,57 52,128c85,234 126,335 143,351c14,14 72,16 525,19c281,1 510,5 510,7c0,28 -120,233 -474,810c-230,374 -421,683 -425,687c-3,3 -45,-62 -92,-145z"></path><path d="M832,1270c-6,-19 -18,-64 -27,-99c-25,-97 -44,-137 -71,-150c-14,-6 -63,-11 -109,-11c-100,0 -98,5 -64,-131c93,-370 405,-642 792,-690c477,-59 923,258 1022,727c8,39 15,123 15,192v122h-487h-488l-130,-346c-87,-233 -136,-350 -149,-360c-11,-8 -35,-14 -54,-14c-48,0 -77,34 -90,106c-9,47 -104,491 -141,654l-7,35z"></path></g></g></g></svg>