<?xml version="1.0" standalone="no"?>
<!DOCTYPE svg PUBLIC "-//W3C//DTD SVG 20010904//EN"
 "http://www.w3.org/TR/2001/REC-SVG-20010904/DTD/svg10.dtd">
<svg version="1.0" xmlns="http://www.w3.org/2000/svg"
 width="300.000000pt" height="300.000000pt" viewBox="0 0 300.000000 300.000000"
 preserveAspectRatio="xMidYMid meet">

<g transform="translate(0.000000,300.000000) scale(0.100000,-0.100000)"
fill="#000000" stroke="none">
<path d="M1349 2757 c-48 -84 -233 -406 -411 -717 -337 -588 -375 -666 -394
-808 l-7 -52 50 0 50 0 10 43 c34 135 125 461 133 478 18 33 56 51 90 44 54
-12 51 -4 140 -415 86 -400 93 -430 100 -430 3 0 27 57 52 128 85 234 126 335
143 351 14 14 72 16 525 19 281 1 510 5 510 7 0 28 -120 233 -474 810 -230
374 -421 683 -425 687 -3 3 -45 -62 -92 -145z"/>
<path d="M832 1270 c-6 -19 -18 -64 -27 -99 -25 -97 -44 -137 -71 -150 -14 -6
-63 -11 -109 -11 -100 0 -98 5 -64 -131 93 -370 405 -642 792 -690 477 -59
923 258 1022 727 8 39 15 123 15 192 l0 122 -487 0 -488 0 -130 -346 c-87
-233 -136 -350 -149 -360 -11 -8 -35 -14 -54 -14 -48 0 -77 34 -90 106 -9 47
-104 491 -141 654 l-7 35 -12 -35z"/>
</g>
</svg>
